<svg width="40" height="40" viewBox="0 0 40 40" fill="none" xmlns="http://www.w3.org/2000/svg">
<rect width="40" height="40" fill="black"/>
<path d="M28.3598 11H11.6402C11.2867 11 11 11.2867 11 11.6402V18.5416C11 18.8951 11.2867 19.1818 11.6402 19.1818H28.3598C28.7133 19.1818 29 18.8951 29 18.5416V11.6402C29 11.2867 28.7133 11 28.3598 11ZM27.7196 17.9014H12.2783V12.2783H27.7196V17.9014Z" fill="white"/>
<path d="M28.3598 20.8182H11.6402C11.2867 20.8182 11 21.1049 11 21.4584V28.3598C11 28.7133 11.2867 29 11.6402 29H28.3598C28.7133 29 29 28.7133 29 28.3598V21.4584C29 21.1049 28.7133 20.8182 28.3598 20.8182ZM27.7196 27.7196H12.2783V22.0965H27.7196V27.7196Z" fill="white"/>
</svg>
