<svg width="40" height="40" viewBox="0 0 40 40" fill="none" xmlns="http://www.w3.org/2000/svg">
<path fill-rule="evenodd" clip-rule="evenodd" d="M27.8918 10.2304H12.1092C10.7393 10.2306 9.38294 10.5012 8.11788 11.0268C6.85282 11.5524 5.70397 12.3226 4.73727 13.2932C-1.869 19.8995 2.92074 31.1 12.1092 31.1H27.8918C29.2617 31.0999 30.6181 30.8292 31.8831 30.3036C33.1482 29.778 34.297 29.0078 35.2638 28.0372C41.87 21.4309 37.0762 10.2304 27.8918 10.2304ZM27.8918 29.5238H12.1092C10.9465 29.523 9.79535 29.2927 8.7218 28.8461C7.64825 28.3995 6.67343 27.7454 5.85324 26.9212C0.236692 21.3047 4.32183 11.8066 12.1092 11.8066H27.8918C29.0549 11.8073 30.2064 12.0379 31.2801 12.4852C32.3537 12.9326 33.3283 13.5878 34.1478 14.4133C39.7603 20.0258 35.6751 29.5401 27.8918 29.5401V29.5238Z" fill="black"/>
<path fill-rule="evenodd" clip-rule="evenodd" d="M6.89978 15.4558C6.21532 16.1397 5.67233 16.9518 5.30187 17.8456C4.9314 18.7395 4.74072 19.6975 4.74072 20.6651C4.74072 21.6327 4.9314 22.5908 5.30187 23.4846C5.67233 24.3784 6.21532 25.1905 6.89978 25.8744C11.5307 30.5053 19.4729 27.2062 19.4729 20.6651C19.4729 14.124 11.5307 10.829 6.89978 15.4558Z" fill="black"/>
</svg>
