<svg width="34" height="34" viewBox="0 0 34 34" fill="none" xmlns="http://www.w3.org/2000/svg">
<path fill-rule="evenodd" clip-rule="evenodd" d="M14.8031 8.61822C14.8031 7.81296 15.4553 7.16068 16.2605 7.16068C17.0658 7.16068 17.718 7.81296 17.718 8.61822V17.505L22.8378 22.625C23.4064 23.1936 23.4064 24.1158 22.8378 24.6858C22.2692 25.2544 21.3457 25.2544 20.7771 24.6858L15.2403 19.1487C14.9704 18.8846 14.803 18.5152 14.803 18.1082L14.8031 8.61822ZM10.5632 0C4.74336 0 0 4.74357 0 10.5637V23.4348C0 29.255 4.74336 34 10.5647 34H23.4353C29.2552 34 34 29.2564 34 23.4348V10.5637C34 4.74357 29.2566 0 23.4353 0H10.5632ZM23.4338 2.91508H10.5632C6.35256 2.91508 2.91362 6.35258 2.91362 10.565V23.4362C2.91362 27.6485 6.35241 31.0861 10.5632 31.0861H23.4338C27.6445 31.0861 31.0834 27.6486 31.0834 23.4362V10.565C31.0834 6.35416 27.6446 2.91508 23.4338 2.91508Z" fill="white"/>
</svg>
