<svg width="22" height="22" viewBox="0 0 22 22" fill="none" xmlns="http://www.w3.org/2000/svg">
<path d="M21.9978 3.86614H4.7732L3.62374 0H0V1.56107H2.45101L6.58256 15.4521H19.4018L22 3.86614H21.9978ZM7.75536 13.8923L5.23811 5.42846H20.0399L18.1421 13.8923H7.75536ZM9.22376 17.0656C7.85472 17.0656 6.7421 18.173 6.7421 19.5328C6.7421 20.8939 7.85598 22 9.22376 22C10.5928 22 11.7054 20.8926 11.7054 19.5328C11.7054 18.1717 10.5915 17.0656 9.22376 17.0656ZM9.22376 20.4391C8.72079 20.4391 8.31231 20.0317 8.31231 19.5329C8.31231 19.0329 8.72204 18.6268 9.22376 18.6268C9.72673 18.6268 10.1352 19.0341 10.1352 19.5329C10.1352 20.033 9.72547 20.4391 9.22376 20.4391ZM17.3484 17.0656C15.9793 17.0656 14.8667 18.173 14.8667 19.5328C14.8667 20.8939 15.9806 22 17.3484 22C18.7174 22 19.83 20.8926 19.83 19.5328C19.83 18.1717 18.7161 17.0656 17.3484 17.0656ZM17.3484 20.4391C16.8454 20.4391 16.4369 20.0317 16.4369 19.5329C16.4369 19.0329 16.8466 18.6268 17.3484 18.6268C17.8513 18.6268 18.2598 19.0341 18.2598 19.5329C18.2598 20.033 17.8501 20.4391 17.3484 20.4391Z" fill="white"/>
</svg>
