<svg width="24" height="24" viewBox="0 0 24 24" fill="none" xmlns="http://www.w3.org/2000/svg">
<rect width="24" height="24" rx="12" fill="white"/>
<path fill-rule="evenodd" clip-rule="evenodd" d="M4.93093 4.93434C6.80541 3.05846 9.34719 2.00315 11.9985 2C14.6483 2.00236 17.189 3.05568 19.0638 4.92907C20.9386 6.80247 21.9945 9.34309 22 11.994C21.9976 14.6471 20.9431 17.1907 19.068 19.0667C17.1929 20.9427 14.6503 21.9976 11.9985 22C9.34925 21.9969 6.80927 20.9432 4.93512 19.0699C3.06098 17.1966 2.00551 14.6564 2 12.006C2.00236 9.35345 3.05644 6.81022 4.93093 4.93434ZM19.3181 16.9524C19.3984 16.8332 19.4758 16.7141 19.5473 16.592V16.5831C19.6925 16.3412 19.8246 16.0917 19.9431 15.8356C20.5095 14.6349 20.7975 13.3217 20.7855 11.994C20.7855 11.942 20.7862 11.8882 20.7869 11.8349C20.7882 11.7298 20.7895 11.6264 20.7855 11.5414C20.7796 11.4133 20.7706 11.2853 20.7587 11.1632C20.7468 11.0411 20.732 10.916 20.7141 10.7969C20.7174 10.7822 20.7174 10.7669 20.7141 10.7522C20.7059 10.6839 20.6977 10.6331 20.6849 10.5537L20.6814 10.5319L20.6783 10.5126C20.6644 10.4263 20.6501 10.3379 20.6307 10.2519C20.6099 10.2162 20.6099 10.1805 20.6099 10.1477C20.5993 10.0944 20.5854 10.0379 20.5722 9.98387C20.5632 9.94741 20.5546 9.9121 20.5474 9.87969C20.5295 9.79929 20.5087 9.71888 20.4849 9.64145C20.4761 9.59892 20.4642 9.55711 20.4492 9.51638C20.4345 9.46378 20.4197 9.41712 20.4029 9.36381C20.3959 9.34167 20.3886 9.31838 20.3807 9.29303C20.3539 9.20667 20.3271 9.12329 20.2944 9.03991C20.2826 8.99619 20.2677 8.95339 20.2497 8.91185C20.2234 8.83275 20.1926 8.7552 20.1575 8.67957C20.1367 8.62077 20.1129 8.56311 20.086 8.50685C20.055 8.42922 20.0202 8.35538 19.984 8.27874C19.9647 8.23779 19.945 8.19603 19.9253 8.15247C19.8876 8.06909 19.8446 7.98835 19.8016 7.90762C19.7801 7.86725 19.7586 7.82688 19.7378 7.78618C19.6752 7.66409 19.6068 7.54497 19.5353 7.42883C19.484 7.341 19.4249 7.25163 19.3692 7.16738C19.3474 7.1345 19.3262 7.1024 19.3061 7.07147C19.2347 6.96129 19.1543 6.8511 19.074 6.7439C19.0548 6.71318 19.0329 6.68427 19.0085 6.65753C18.9489 6.57713 18.8864 6.49672 18.818 6.41632C18.8048 6.39535 18.7888 6.37631 18.7704 6.35974C18.7391 6.3173 18.7028 6.27486 18.6665 6.23242C18.6544 6.21828 18.6424 6.20414 18.6304 6.18999C18.3733 5.89402 18.0958 5.6164 17.8 5.35914C17.775 5.33759 17.7535 5.32078 17.7314 5.30347C17.6954 5.27533 17.6577 5.24584 17.6005 5.19238C17.5083 5.10602 17.4071 5.02561 17.3029 4.95116L17.2642 4.92138C17.0533 4.74941 16.8337 4.58838 16.6063 4.43895L16.5676 4.41513C16.464 4.35132 16.3603 4.29462 16.2503 4.23446C16.2371 4.22724 16.2238 4.21997 16.2104 4.21263C16.1271 4.16696 16.0438 4.12527 15.9595 4.08314C15.9174 4.06207 15.8751 4.0409 15.8324 4.01906C15.7173 3.96012 15.5973 3.90841 15.479 3.85743C15.4658 3.85174 15.4526 3.84606 15.4395 3.84038C15.3369 3.79607 15.2307 3.75541 15.1265 3.71554C15.0977 3.7045 15.069 3.69353 15.0406 3.68255C14.9097 3.63193 14.7757 3.58725 14.6388 3.54556H14.615C14.4989 3.50685 14.3798 3.47409 14.2578 3.44431L14.1476 3.41453C14.0604 3.39012 13.972 3.37024 13.8827 3.35497C13.8328 3.34122 13.7821 3.33028 13.7309 3.32222C13.6238 3.29839 13.5136 3.28053 13.4005 3.26266H13.3291C13.2898 3.25688 13.2456 3.25379 13.2026 3.25079C13.1347 3.24604 13.0697 3.2415 13.0314 3.22692C12.9689 3.2031 12.9034 3.2031 12.8409 3.2031C12.8131 3.20052 12.7867 3.19779 12.7606 3.19511C12.6664 3.18543 12.5775 3.1763 12.4539 3.1763H11.9985C10.8176 3.17467 9.64842 3.41063 8.5605 3.87016C6.44528 4.76486 4.76228 6.44967 3.86933 8.56641C3.83613 8.64505 3.80602 8.72472 3.77597 8.80421C3.75482 8.86018 3.7337 8.91605 3.71156 8.97141C3.65798 9.10542 3.61333 9.24538 3.57166 9.38237C3.31735 10.2373 3.1949 11.126 3.20851 12.0179C3.20851 12.0699 3.20784 12.1237 3.20717 12.177C3.20586 12.2822 3.20456 12.3855 3.20851 12.4705C3.21101 12.5243 3.21614 12.5781 3.22124 12.6316C3.22829 12.7056 3.2353 12.7792 3.2353 12.8517C3.23772 12.8807 3.2421 12.9097 3.24645 12.9386C3.25282 12.9807 3.25911 13.0225 3.25911 13.0631C3.26904 13.1564 3.28094 13.2488 3.29484 13.3401C3.2934 13.3639 3.2934 13.3878 3.29484 13.4116C3.30972 13.5217 3.33055 13.6319 3.35437 13.7421C3.3578 13.7627 3.36344 13.7833 3.36907 13.804C3.37809 13.8369 3.38711 13.8699 3.38711 13.9029C3.401 13.9803 3.41886 14.0578 3.44069 14.1352C3.45142 14.1886 3.46533 14.2413 3.48236 14.293C3.50915 14.4062 3.54189 14.5164 3.57761 14.6266C3.57592 14.6344 3.57592 14.6425 3.57761 14.6504C3.60556 14.7423 3.63752 14.8328 3.66901 14.922C3.68448 14.9658 3.69983 15.0092 3.71454 15.0524C3.75919 15.1834 3.80979 15.3085 3.86337 15.4336C3.86171 15.4434 3.86171 15.4535 3.86337 15.4634C3.911 15.5795 3.96458 15.6957 4.02113 15.8088C4.0258 15.8242 4.03177 15.8391 4.03899 15.8535C4.28821 16.3642 4.58733 16.849 4.93198 17.3008C4.98661 17.3777 5.06462 17.4739 5.12488 17.5482C5.15327 17.5832 5.17772 17.6133 5.19393 17.6343C5.24452 17.6998 5.30107 17.7653 5.35761 17.8308L5.35764 17.8309C5.61379 18.1277 5.8903 18.4063 6.18515 18.6647C6.78563 19.1894 7.45453 19.6302 8.17354 19.975C8.29856 20.0375 8.42655 20.0941 8.55455 20.1477H8.58431C8.66863 20.1839 8.75702 20.2173 8.84307 20.2499C8.88461 20.2656 8.9256 20.2811 8.96532 20.2966C9.08736 20.3443 9.20941 20.3859 9.3374 20.4247L9.4267 20.4515C9.43974 20.4553 9.45272 20.4591 9.46567 20.463C9.55321 20.4888 9.63879 20.5141 9.72436 20.5348L9.88808 20.5765C9.96547 20.5984 10.0429 20.6162 10.1203 20.6301L10.275 20.6778C10.3733 20.6986 10.4715 20.7165 10.5727 20.7314C10.6099 20.7402 10.6477 20.7462 10.6858 20.7493C10.7046 20.7525 10.7234 20.756 10.7422 20.7595C10.8099 20.7722 10.8779 20.785 10.9478 20.785L11.1651 20.8088C11.2239 20.8088 11.2762 20.8161 11.3315 20.8238C11.3937 20.8324 11.4596 20.8416 11.5431 20.8416H11.9985C13.0343 20.8437 14.0622 20.6623 15.0347 20.3055C15.3043 20.2085 15.5686 20.0971 15.8265 19.972C16.7227 19.5417 17.5391 18.9616 18.2405 18.2567C18.4416 18.0591 18.6315 17.8503 18.809 17.6313C18.9905 17.4141 19.1604 17.1875 19.3181 16.9524ZM14.8113 15.735C15.3235 15.2663 15.6197 14.6283 15.6364 13.9576C15.6244 13.2819 15.3286 12.6379 14.8132 12.1651C14.2979 11.6924 13.6044 11.429 12.8832 11.4321H11.1077C10.9086 11.4378 10.7103 11.4063 10.5244 11.3394C10.3385 11.2724 10.1687 11.1715 10.025 11.0423C9.88122 10.9132 9.76637 10.7585 9.68714 10.5873C9.60792 10.4161 9.56591 10.2318 9.56358 10.0453C9.5659 9.85879 9.60793 9.67464 9.68719 9.50359C9.76645 9.33255 9.88135 9.17805 10.0252 9.04915C10.169 8.92024 10.3388 8.81954 10.5247 8.75293C10.7106 8.68632 10.9088 8.65514 11.1077 8.66123H15.1125V7.53404H12.8162V5.63636H11.598V7.53404H11.1046C10.3867 7.52944 9.69586 7.79073 9.18252 8.26104C8.66918 8.73136 8.37486 9.37261 8.36364 10.0453C8.37486 10.7179 8.66918 11.3591 9.18252 11.8295C9.69586 12.2998 10.3867 12.5611 11.1046 12.5565H12.8802C13.0796 12.5504 13.2784 12.5816 13.4648 12.6483C13.6512 12.715 13.8216 12.8159 13.9659 12.945C14.1102 13.0742 14.2256 13.229 14.3054 13.4004C14.3851 13.5718 14.4276 13.7564 14.4303 13.9433C14.4272 14.1299 14.3844 14.3141 14.3045 14.485C14.2245 14.6559 14.109 14.8102 13.9646 14.9388C13.8203 15.0674 13.6501 15.1677 13.4638 15.234C13.2776 15.3002 13.0792 15.331 12.8802 15.3245H8.9027V16.466H11.5858V18.3636H12.804V16.466H12.8954C13.6114 16.4661 14.2991 16.2038 14.8113 15.735Z" fill="url(#paint0_linear_5019_86)"/>
<defs>
<linearGradient id="paint0_linear_5019_86" x1="2.13699" y1="2" x2="19.2225" y2="6.62791" gradientUnits="userSpaceOnUse">
<stop stop-color="#FFBF00"/>
<stop offset="1" stop-color="#FF1D1D"/>
</linearGradient>
</defs>
</svg>
