<svg width="21" height="21" viewBox="0 0 21 21" fill="none" xmlns="http://www.w3.org/2000/svg">
<path fill-rule="evenodd" clip-rule="evenodd" d="M13.7903 9.08898C12.7915 10.087 11.4374 10.6479 10.0254 10.6485C8.61414 10.6468 7.26117 10.0854 6.26326 9.08746C5.26534 8.08955 4.70396 6.73657 4.70225 5.32531C4.70339 3.91367 5.26452 2.56015 6.2625 1.56177C7.26047 0.563389 8.61377 0.00171269 10.0254 0C11.4378 0.00057089 12.7922 0.561743 13.7911 1.56025C14.79 2.55875 15.3517 3.91293 15.3529 5.32531C15.3512 6.73732 14.7892 8.09094 13.7903 9.08898ZM12.922 2.42657C12.1538 1.65834 11.1118 1.22676 10.0254 1.22676C8.93897 1.22676 7.89704 1.65834 7.12882 2.42657C6.36059 3.19479 5.92901 4.23672 5.92901 5.32315C5.92901 6.40959 6.36059 7.45152 7.12882 8.21974C7.89704 8.98797 8.93897 9.41955 10.0254 9.41955C11.1118 9.41955 12.1538 8.98797 12.922 8.21974C13.6902 7.45152 14.1218 6.40959 14.1218 5.32315C14.1218 4.23672 13.6902 3.19479 12.922 2.42657ZM16.8168 11.5949L19.8804 14.6608C19.9376 14.7171 19.983 14.7843 20.0141 14.8583C20.0452 14.9323 20.0613 15.0117 20.0615 15.092V20.1047C20.0615 20.2671 19.997 20.4228 19.8822 20.5376C19.7674 20.6525 19.6116 20.717 19.4492 20.717H0.612302C0.449909 20.717 0.294169 20.6525 0.17934 20.5376C0.0645105 20.4228 0 20.2671 0 20.1047V15.092C0.00036286 14.9302 0.0646907 14.7752 0.178945 14.6608L3.25771 11.6079C3.31407 11.5507 3.38119 11.5053 3.4552 11.4742C3.52921 11.4431 3.60864 11.427 3.68891 11.4268H8.02246C8.10855 11.4269 8.19367 11.445 8.27238 11.4799C8.35108 11.5148 8.42164 11.5657 8.47953 11.6294L10.0319 13.4448L11.5863 11.6294C11.6437 11.562 11.7151 11.5077 11.7955 11.4705C11.8759 11.4333 11.9634 11.4139 12.052 11.4138H16.3856C16.4659 11.414 16.5453 11.43 16.6194 11.4611C16.6934 11.4922 16.7605 11.5377 16.8168 11.5949ZM1.22029 19.4902H18.8369L18.8326 15.3507L16.1247 12.6428H12.3258L10.4889 14.7837C10.432 14.8512 10.3611 14.9055 10.281 14.9428C10.2009 14.98 10.1137 14.9993 10.0254 14.9993C9.93683 14.9989 9.8494 14.9794 9.76904 14.9422C9.68868 14.905 9.61728 14.8509 9.55969 14.7837L7.72493 12.6428H3.92607L1.22029 15.3507V19.4902Z" fill="white"/>
</svg>
