<svg width="22" height="22" viewBox="0 0 22 22" fill="none" xmlns="http://www.w3.org/2000/svg">
<path d="M13.5845 21.9985C11.4284 21.9985 9.40661 21.165 7.89179 19.6504L2.34844 14.1078C0.833675 12.5922 0 10.5718 0 8.4159C0 6.26008 0.833647 4.23861 2.34844 2.72509L2.69973 2.37492C2.97475 2.10101 3.41952 2.10101 3.69454 2.376L8.57728 7.25808C8.79966 7.48043 8.84693 7.82202 8.69546 8.09701C7.87361 9.58256 8.13898 11.4592 9.34112 12.6601C10.5422 13.861 12.4189 14.1263 13.9048 13.3046C14.1799 13.1521 14.5215 13.2004 14.7439 13.4228L19.6266 18.306C19.9006 18.5809 19.9016 19.0257 19.6277 19.3006L19.2786 19.6508C17.7627 21.1664 15.742 22 13.5848 22L13.5845 21.9985ZM3.19908 3.86988C0.756118 6.46827 0.80554 10.5715 3.34519 13.1119L8.88854 18.6544C11.4293 21.1948 15.532 21.2432 18.1318 18.8005L14.1021 14.7704C13.2416 15.1345 12.2844 15.2655 11.3541 15.142C10.2067 14.9884 9.16678 14.4739 8.34586 13.6543C7.52616 12.8347 7.01157 11.7939 6.85794 10.6465C6.73332 9.7163 6.86438 8.75814 7.22859 7.89881L3.19908 3.86988ZM16.8985 11.7886C16.8029 11.7886 16.7062 11.7693 16.6138 11.7285C16.2582 11.5706 16.0981 11.1549 16.255 10.7993C16.892 9.36102 16.5729 7.64992 15.4611 6.53816C14.3491 5.42639 12.6366 5.10738 11.1993 5.74328C10.8437 5.90119 10.428 5.74006 10.27 5.38451C10.1121 5.02896 10.2733 4.61326 10.6289 4.45536C11.5861 4.03213 12.6378 3.90432 13.6712 4.08801C14.7304 4.27599 15.693 4.77869 16.4558 5.54136C17.2185 6.30293 17.7213 7.26645 17.9093 8.32559C18.093 9.36 17.9652 10.4116 17.5419 11.3686C17.4259 11.6317 17.168 11.7875 16.8973 11.7875L16.8985 11.7886ZM21.0989 11.7886C21.0484 11.7886 20.9979 11.7833 20.9463 11.7725C20.6176 11.7005 20.3931 11.4084 20.3931 11.085C20.3931 11.0346 20.3985 10.9841 20.4092 10.9336C20.5338 10.3686 20.5951 9.79928 20.5951 9.23534C20.5961 7.18046 19.7872 5.19554 18.296 3.70237C16.3945 1.80216 13.6905 1.01158 11.0649 1.58949C10.6846 1.67328 10.3096 1.43266 10.2258 1.05349C10.142 0.673241 10.3827 0.298354 10.7619 0.214566C12.2584 -0.114124 13.8301 -0.0647089 15.3061 0.359577C16.8069 0.790313 18.1842 1.6013 19.2895 2.70663C19.2906 2.7077 19.2906 2.7077 19.2917 2.70878C20.3595 3.77756 21.1534 5.09985 21.595 6.54152C21.5993 6.55548 21.6036 6.56945 21.6079 6.58341C21.6186 6.61993 21.6294 6.65645 21.6401 6.69298C21.8797 7.52651 22 8.39015 22 9.2527C22 9.91869 21.928 10.5847 21.7851 11.2367C21.7132 11.5654 21.422 11.7899 21.0987 11.7899L21.0989 11.7886Z" fill="white"/>
</svg>
