<svg width="18" height="14" viewBox="0 0 18 14" fill="none" xmlns="http://www.w3.org/2000/svg">
<path d="M8.71989 10.407C8.5903 9.70026 8.2098 9.06047 7.64501 8.59964C7.08022 8.13881 6.36712 7.88632 5.63058 7.88638C5.21859 7.88612 4.81058 7.96499 4.42986 8.11849C4.04915 8.272 3.7032 8.49712 3.41178 8.781C3.12036 9.06487 2.88919 9.40194 2.73146 9.77294C2.57374 10.1439 2.49256 10.5416 2.49256 10.9432C2.4931 11.7541 2.82394 12.5316 3.41238 13.1048C4.00081 13.678 4.79868 14 5.63058 14C6.36712 14.0001 7.08022 13.7476 7.64501 13.2867C8.2098 12.8259 8.5903 12.1861 8.71989 11.4794H18V10.407H8.71989ZM5.63058 12.9356C5.09225 12.9356 4.57597 12.7271 4.19531 12.3561C3.81466 11.985 3.60081 11.4818 3.60081 10.957C3.60081 10.4323 3.81466 9.92906 4.19531 9.55801C4.57597 9.18697 5.09225 8.97852 5.63058 8.97852C6.16891 8.97852 6.68519 9.18697 7.06584 9.55801C7.4465 9.92906 7.66035 10.4323 7.66035 10.957C7.66035 11.4818 7.4465 11.985 7.06584 12.3561C6.68519 12.7271 6.16891 12.9356 5.63058 12.9356ZM1.63802 10.4149H0V11.4873H1.63599C1.6115 11.3096 1.59929 11.1304 1.59945 10.9511C1.59855 10.7691 1.61144 10.5872 1.63802 10.407V10.4149ZM12.3694 0.00791426C11.6328 0.00801875 10.9198 0.260859 10.3553 0.722108C9.79078 1.18336 9.41086 1.82358 9.28214 2.53053H0.00202556V3.6009H9.28214C9.41172 4.30765 9.79222 4.94745 10.357 5.40827C10.9218 5.8691 11.6349 6.12159 12.3714 6.12154C13.2028 6.11944 13.9993 5.79564 14.5858 5.22132C15.1724 4.647 15.5009 3.86917 15.4993 3.05879C15.4993 2.24892 15.1698 1.4721 14.5831 0.898692C13.9963 0.325284 13.2003 0.0020954 12.3694 0V0.00791426ZM12.3694 5.05116C11.8311 5.05116 11.3148 4.84271 10.9342 4.47166C10.5535 4.10062 10.3396 3.59738 10.3396 3.07264C10.3396 2.5479 10.5535 2.04466 10.9342 1.67362C11.3148 1.30257 11.8311 1.09412 12.3694 1.09412C12.9077 1.09412 13.424 1.30257 13.8047 1.67362C14.1853 2.04466 14.3992 2.5479 14.3992 3.07264C14.397 3.596 14.1822 4.09722 13.8018 4.46655C13.4214 4.83589 12.9063 5.04325 12.3694 5.04324V5.05116ZM16.362 2.53053C16.3872 2.7082 16.4001 2.88734 16.4005 3.0667C16.4 3.24607 16.3871 3.4252 16.362 3.60288H18V2.53053H16.362Z" fill="black"/>
</svg>
