<svg width="36" height="32" viewBox="0 0 36 32" fill="none" xmlns="http://www.w3.org/2000/svg">
<path d="M33.8878 20.5283V9.32677C33.8878 8.71749 33.4286 8.1082 32.648 7.59265C31.7296 7.03023 30.4439 6.65529 29.0204 6.65529C28.9286 6.65529 28.7908 6.65529 28.699 6.60842L6.88775 2.15594C5.46429 2.15594 4.22449 2.53088 3.30612 3.0933C2.52551 3.56198 2.06633 4.17127 2.06633 4.82743V20.5283C2.06633 21.1376 2.52551 21.7468 3.30612 22.2624C4.22449 22.8248 5.5102 23.1998 6.93367 23.1998H20.4796C20.7092 23.1998 20.9388 23.2935 21.1225 23.4341L28.5612 28.2615L27.1837 24.6058C26.9541 24.0434 27.2296 23.4341 27.7806 23.1998C27.9184 23.1529 28.0561 23.1529 28.1939 23.1529H29.0204C30.4439 23.1529 31.7755 22.8248 32.648 22.2155C33.4286 21.7468 33.8878 21.1376 33.8878 20.5283ZM10.9286 12.0451C12.0306 12.0451 12.9031 12.9356 12.9031 14.0605C12.9031 15.1853 12.0306 16.0758 10.9286 16.0758C9.82653 16.0758 8.95408 15.1853 8.95408 14.0605C9 12.9356 9.87245 12.0451 10.9286 12.0451ZM25.0714 12.0451C26.1735 12.0451 27.0459 12.9356 27.0459 14.0605C27.0459 15.1853 26.1735 16.0758 25.0714 16.0758C23.9694 16.0758 23.0969 15.1853 23.0969 14.0605C23.0969 12.9356 23.9694 12.0451 25.0714 12.0451ZM18 12.0451C19.102 12.0451 19.9745 12.9356 19.9745 14.0605C19.9745 15.1853 19.102 16.0758 18 16.0758C16.898 16.0758 16.0255 15.1853 16.0255 14.0605C16.0255 12.9356 16.898 12.0451 18 12.0451ZM36 9.32677V20.5283C36 21.9343 35.1276 23.1998 33.75 24.0903C32.648 24.7464 31.2704 25.2151 29.7092 25.3088L31.7755 30.5112C31.9133 30.8393 31.8673 31.1674 31.6837 31.4954C31.3622 32.011 30.7194 32.1516 30.2143 31.8235L20.25 25.3088H6.97959C5.14286 25.3088 3.44388 24.8401 2.25 24.0434C0.872449 23.1998 0 21.9343 0 20.4814V4.82743C0 3.37451 0.872449 2.15594 2.25 1.26544C3.4898 0.515551 5.14286 0 6.97959 0C7.02551 0 7.11735 1.78814e-07 7.20918 0.0468684L29.1582 4.54622C30.949 4.54622 32.602 5.0149 33.7959 5.81166C35.1735 6.65529 36 7.87386 36 9.32677Z" fill="white"/>
</svg>
