<svg width="34" height="24" viewBox="0 0 34 24" fill="none" xmlns="http://www.w3.org/2000/svg">
<path fill-rule="evenodd" clip-rule="evenodd" d="M14.8065 13.2937L16.3822 14.5444C16.5576 14.6844 16.7751 14.7607 16.9993 14.7607C17.2234 14.7607 17.4409 14.6844 17.6164 14.5444L19.1921 13.2937L30.1405 21.9996H3.85955L14.8065 13.2937ZM17 12.486L3.81239 2.00037H30.1876L17 12.4849V12.486ZM1.99247 3.10426V20.9321L13.2033 12.018L1.99247 3.10426ZM32.0075 20.9321V3.10426L20.7967 12.018L32.0075 20.9321ZM33.0038 6.74154e-08H0.996237C0.865396 -4.81733e-05 0.735828 0.0257939 0.614937 0.07605C0.494046 0.126306 0.384203 0.199991 0.291684 0.292893C0.199166 0.385796 0.125785 0.496094 0.0757367 0.617486C0.0256882 0.738878 -4.74364e-05 0.868984 6.05117e-07 1.00037V22.9996C-0.000143708 23.131 0.0255262 23.2612 0.0755407 23.3826C0.125555 23.5041 0.198932 23.6144 0.29147 23.7073C0.384008 23.8002 0.493889 23.8739 0.614823 23.9241C0.735757 23.9744 0.865369 24.0001 0.996237 24H33.0038C33.1346 24.0001 33.2642 23.9744 33.3852 23.9241C33.5061 23.8739 33.616 23.8002 33.7085 23.7073C33.8011 23.6144 33.8744 23.5041 33.9245 23.3826C33.9745 23.2612 34.0001 23.131 34 22.9996V1.00037C34 0.868984 33.9743 0.738878 33.9243 0.617486C33.8742 0.496094 33.8008 0.385796 33.7083 0.292893C33.6158 0.199991 33.506 0.126306 33.3851 0.07605C33.2642 0.0257939 33.1346 -4.81733e-05 33.0038 6.74154e-08Z" fill="white"/>
</svg>
