<svg width="22" height="22" viewBox="0 0 22 22" fill="none" xmlns="http://www.w3.org/2000/svg">
<path d="M9.21247 18.416C11.2868 18.4174 13.3001 17.7144 14.923 16.4221L20.4989 22L22 20.4984L16.424 14.9205C17.7169 13.2854 18.4169 11.2598 18.4095 9.17508C18.402 7.09033 17.6876 5.06981 16.383 3.44402C15.0785 1.81823 13.261 0.683412 11.228 0.225186C9.19488 -0.23304 7.06654 0.0124515 5.19107 0.921504C3.3156 1.83056 1.80401 3.34936 0.903556 5.22948C0.00310357 7.1096 -0.232911 9.23975 0.234119 11.2715C0.701149 13.3032 1.84358 15.1163 3.47453 16.4141C5.10549 17.712 7.12843 18.4177 9.21247 18.416ZM9.21247 2.12493C10.6129 2.12493 11.9818 2.54034 13.1462 3.31864C14.3106 4.09693 15.2182 5.20316 15.7541 6.49742C16.29 7.79168 16.4302 9.21585 16.157 10.5898C15.8838 11.9638 15.2094 13.2259 14.2192 14.2165C13.229 15.2071 11.9673 15.8817 10.5938 16.155C9.22032 16.4283 7.79665 16.288 6.50285 15.7519C5.20904 15.2158 4.1032 14.3079 3.32518 13.1431C2.54715 11.9783 2.13188 10.6089 2.13188 9.20799C2.13188 7.32944 2.87787 5.52784 4.20574 4.19951C5.53361 2.87117 7.33458 2.12493 9.21247 2.12493Z" fill="white"/>
</svg>
